<?xml version="1.0" encoding="UTF-8"?>
<svg id="Warstwa_1" data-name="Warstwa 1" xmlns="http://www.w3.org/2000/svg" xmlns:xlink="http://www.w3.org/1999/xlink" viewBox="0 0 224.47 75.83">
  <defs>
    <style>
      .cls-1 {
        fill: #fff;
      }

      .cls-2 {
        fill: url(#Gradient_bez_nazwy_25);
      }

      .cls-3 {
        fill: url(#Gradient_bez_nazwy_32-2);
      }

      .cls-4 {
        fill: url(#Gradient_bez_nazwy_32);
      }

      .cls-5 {
        fill: #1d1d1b;
      }
    </style>
    <linearGradient id="Gradient_bez_nazwy_32" data-name="Gradient bez nazwy 32" x1="0" y1="5.84" x2="11.67" y2="5.84" gradientUnits="userSpaceOnUse">
      <stop offset="0" stop-color="#00bcd7"/>
      <stop offset="1" stop-color="#005de9"/>
    </linearGradient>
    <linearGradient id="Gradient_bez_nazwy_32-2" data-name="Gradient bez nazwy 32" x1="23.2" y1="29.15" x2="46.54" y2="29.15" xlink:href="#Gradient_bez_nazwy_32"/>
    <linearGradient id="Gradient_bez_nazwy_25" data-name="Gradient bez nazwy 25" x1="0" y1="40.8" x2="35.42" y2="40.8" gradientUnits="userSpaceOnUse">
      <stop offset="0" stop-color="#005de9"/>
      <stop offset="1" stop-color="#00cbd4"/>
    </linearGradient>
  </defs>
  <g>
    <g>
      <rect class="cls-1" x="0" y="0" width="9.96" height="9.96" transform="translate(9.97 0) rotate(90)"/>
      <path class="cls-1" d="M37.74,30.77c-.6-2.27-1.86-5.1-4.47-7.58-1.07-1.01-2.26-1.87-3.57-2.55,1.47-1.23,2.28-2.69,2.29-4.11,0-3.05-3.56-6.44-8.79-6.79V.03c.38-.02.76-.03,1.14-.03,11.82,0,20.14,8.69,20.5,16.82.22,4.99-2.47,10.24-7.09,13.95Z"/>
      <path class="cls-1" d="M44.11,56.29c-3.54-.77-8.86-2.69-13.5-7.46-3.8-3.92-5.64-8.26-6.53-11.46,1.48-.25,2.96-.38,4.46-.38,1.76,0,3.55.17,5.33.51l.19.04,10.05,18.76Z"/>
      <path class="cls-1" d="M9.79,56.54c-4.86-.45-8.83-4.1-9.63-9L0,23.29h22.48c1.32.03,4.75.41,7.66,3.18,2.28,2.17,3.11,4.73,3.42,6.36-1.68-.26-3.37-.39-5.03-.39-2.1,0-4.19.21-6.2.63-3.28.68-6.11,1.27-8.53,3.72-2.53,2.56-3.17,5.62-3.8,8.58-.76,3.62-.84,7.38-.22,11.17Z"/>
    </g>
    <g>
      <rect class="cls-1" x="69.33" y="7.58" width="9.04" height="9.04"/>
      <path class="cls-1" d="M78.36,28.3h-9v20.15s0,0,0,0h0c0,4.97,4.03,9,9,9h0v-29.14Z"/>
      <path class="cls-1" d="M97.47,29.77c-1.57.98-2.87,2.32-3.9,4v-5.48h-8.84c0,6.77,0,13.54,0,20.31h0s0,0,0,0v.06h0c.04,4.85,3.98,8.76,8.83,8.76h0v-8.74c0-.48,0-1.88,0-2.37,0-2.26,0-2.23,0-2.27.02-1.34-.2-3.61,1.66-4.98.78-.58,1.67-.95,2.07-1.07.83-.24,1.79-.36,2.89-.36h2.43v-9.35c-1.86,0-3.57.49-5.14,1.47Z"/>
      <g>
        <path class="cls-1" d="M138.82,28.3h-10.04c-2.2,5.19-4.4,10.38-6.61,15.57-2.2-5.19-4.4-10.38-6.61-15.57h-10.05c3.88,9.14,7.75,18.27,11.63,27.41-.03.07-.07.14-.1.21-.13.29-2.79,6.55-2.93,6.93h0c-1.99,4.7.2,10.13,4.9,12.12h0l3.6-8.49s0,0,0,0c1.13-2.67,3.38-7.97,4.11-9.7-.02.05-.04.09-.04.09,0,0,5.39-12.7,12.12-28.57Z"/>
        <path class="cls-1" d="M126.84,56.54s.02-.06.04-.09c-.04.09-.08.19-.14.33.03-.06.06-.15.1-.24Z"/>
        <path class="cls-1" d="M126.96,56.24s.01-.03.01-.03c0,0-.01.02-.01.03Z"/>
        <path class="cls-1" d="M126.87,56.45c.05-.11.08-.18.09-.21-.02.04-.05.12-.09.21Z"/>
      </g>
      <path class="cls-1" d="M168.73,28.3h-8.68v4.41c-.81-1.32-1.97-2.39-3.48-3.2-1.51-.81-3.26-1.22-5.26-1.22-2.34,0-4.45.59-6.35,1.78-1.9,1.19-3.39,2.88-4.49,5.08-1.1,2.2-1.65,4.76-1.65,7.67s.55,5.48,1.65,7.69c1.1,2.22,2.6,3.93,4.49,5.13,1.9,1.2,3.99,1.8,6.3,1.8,2,0,3.75-.41,5.26-1.22.97-.52,1.66-1.1,2.01-1.41,1-.86,1.69-1.72,2.14-2.38,0-.01,0-.02,0-.04,1.47,2.98,4.52,5.04,8.07,5.04h0v-8.63h0v-20.51ZM158.24,47.99c-1.2,1.25-2.67,1.88-4.39,1.88s-3.19-.63-4.39-1.9c-1.2-1.27-1.8-2.99-1.8-5.15s.6-3.87,1.8-5.1c1.2-1.24,2.67-1.85,4.39-1.85s3.19.63,4.39,1.88c1.2,1.25,1.8,2.96,1.8,5.13s-.6,3.88-1.8,5.13Z"/>
      <path class="cls-1" d="M220.44,31.55c-2.12-2.17-4.97-3.26-8.55-3.26-2.03,0-3.91.5-5.63,1.5-1.72,1-3.08,2.29-4.08,3.88-.96-1.72-2.3-3.05-4-3.98-1.71-.93-3.64-1.4-5.81-1.4-1.04,0-2.86.05-4.91,1.06-1.92.95-3.09,2.28-3.67,3.05,0,1.53,0-5.63,0-4.1h-8.68v20.31c0,4.88,3.96,8.84,8.84,8.84h0v-15.66c0-1.86.49-3.3,1.47-4.32.98-1.02,2.33-1.52,4.06-1.52s3.07.51,4.06,1.52c.98,1.02,1.47,2.46,1.47,4.32v6.82h-.05c0,4.88,3.96,8.84,8.84,8.84h0v-15.66c0-1.86.49-3.3,1.47-4.32.98-1.02,2.33-1.52,4.06-1.52s3.07.51,4.06,1.52c.98,1.02,1.47,2.46,1.47,4.32v6.82h-.05c0,4.88,3.96,8.84,8.84,8.84h0v-16.84c0-3.86-1.06-6.87-3.18-9.04Z"/>
    </g>
  </g>
  <g>
    <rect class="cls-4" x="0" y=".01" width="11.66" height="11.66"/>
    <rect class="cls-5" x="70.18" y="8.43" width="9.04" height="9.04"/>
    <path class="cls-3" d="M23.36,34.76c.3,2.32,1.53,9.36,7.49,15.51,6.14,6.33,13.41,7.69,15.69,8.02-3.71-7.85-7.42-15.71-11.13-23.56,6.93-3.68,11.41-10.4,11.11-17.1C46.11,8.1,36.04-.94,23.2.09v11.32c5.21.02,8.79,3.3,8.79,5.97,0,3.07-4.75,5.94-8.47,5.92-.07,0-.13,0-.18,0l.02,11.47Z"/>
    <path class="cls-2" d="M23.34,23.3H0c.05,8.39.1,16.78.15,25.17.88,5.57,5.69,9.83,11.51,9.83-1.02-5.24-.49-9.4.03-11.9.64-3.06,1.26-5.81,3.57-8.15,2.24-2.27,4.81-2.8,8.09-3.48,2.53-.53,6.75-1.05,12.06-.03-.08-.93-.5-4.85-3.83-8.02-3.35-3.19-7.32-3.39-8.25-3.42Z"/>
    <path class="cls-5" d="M79.22,29.15h-9v20.15s0,0,0,0h0c0,4.97,4.03,9,9,9h0v-29.14Z"/>
    <path class="cls-5" d="M98.32,30.63c-1.57.98-2.87,2.32-3.9,4v-5.48h-8.84c0,6.77,0,13.54,0,20.31h0s0,0,0,0v.06h0c.04,4.85,3.98,8.76,8.83,8.76h0v-8.74c0-.48,0-1.88,0-2.37,0-2.26,0-2.23,0-2.27.02-1.34-.2-3.61,1.66-4.98.78-.58,1.67-.95,2.07-1.07.83-.24,1.79-.36,2.89-.36h2.43v-9.35c-1.86,0-3.57.49-5.14,1.47Z"/>
    <g>
      <path class="cls-5" d="M139.67,29.15h-10.04c-2.2,5.19-4.4,10.38-6.61,15.57-2.2-5.19-4.4-10.38-6.61-15.57h-10.05c3.88,9.14,7.75,18.27,11.63,27.41-.03.07-.07.14-.1.21-.13.29-2.79,6.55-2.93,6.93h0c-1.99,4.7.2,10.13,4.9,12.12h0l3.6-8.49s0,0,0,0c1.13-2.67,3.38-7.97,4.11-9.7-.02.05-.04.09-.04.09,0,0,5.39-12.7,12.12-28.57Z"/>
      <path class="cls-5" d="M127.69,57.39s.02-.06.04-.09c-.04.09-.08.19-.14.33.03-.06.06-.15.1-.24Z"/>
      <path class="cls-5" d="M127.82,57.1s.01-.03.01-.03c0,0-.01.02-.01.03Z"/>
      <path class="cls-5" d="M127.73,57.31c.05-.11.08-.18.09-.21-.02.04-.05.12-.09.21Z"/>
    </g>
    <path class="cls-5" d="M169.58,29.15h-8.68v4.41c-.81-1.32-1.97-2.39-3.48-3.2-1.51-.81-3.26-1.22-5.26-1.22-2.34,0-4.45.59-6.35,1.78-1.9,1.19-3.39,2.88-4.49,5.08-1.1,2.2-1.65,4.76-1.65,7.67s.55,5.48,1.65,7.69c1.1,2.22,2.6,3.93,4.49,5.13,1.9,1.2,3.99,1.8,6.3,1.8,2,0,3.75-.41,5.26-1.22.97-.52,1.66-1.1,2.01-1.41,1-.86,1.69-1.72,2.14-2.38,0-.01,0-.02,0-.04,1.47,2.98,4.52,5.04,8.07,5.04h0v-8.63h0v-20.51ZM159.1,48.85c-1.2,1.25-2.67,1.88-4.39,1.88s-3.19-.63-4.39-1.9c-1.2-1.27-1.8-2.99-1.8-5.15s.6-3.87,1.8-5.1c1.2-1.24,2.67-1.85,4.39-1.85s3.19.63,4.39,1.88c1.2,1.25,1.8,2.96,1.8,5.13s-.6,3.88-1.8,5.13Z"/>
    <path class="cls-5" d="M221.29,32.41c-2.12-2.17-4.97-3.26-8.55-3.26-2.03,0-3.91.5-5.63,1.5-1.72,1-3.08,2.29-4.08,3.88-.96-1.72-2.3-3.05-4-3.98-1.71-.93-3.64-1.4-5.81-1.4-1.04,0-2.86.05-4.91,1.06-1.92.95-3.09,2.28-3.67,3.05,0,1.53,0-5.63,0-4.1h-8.68v20.31c0,4.88,3.96,8.84,8.84,8.84h0v-15.66c0-1.86.49-3.3,1.47-4.32.98-1.02,2.33-1.52,4.06-1.52s3.07.51,4.06,1.52c.98,1.02,1.47,2.46,1.47,4.32v6.82h-.05c0,4.88,3.96,8.84,8.84,8.84h0v-15.66c0-1.86.49-3.3,1.47-4.32.98-1.02,2.33-1.52,4.06-1.52s3.07.51,4.06,1.52c.98,1.02,1.47,2.46,1.47,4.32v6.82h-.05c0,4.88,3.96,8.84,8.84,8.84h0v-16.84c0-3.86-1.06-6.87-3.18-9.04Z"/>
  </g>
</svg>